<mxfile host="app.diagrams.net" modified="2021-11-17T16:39:08.322Z" agent="5.0 (Windows NT 10.0; Win64; x64) AppleWebKit/537.36 (KHTML, like Gecko) Chrome/95.0.4638.69 Safari/537.36" etag="0iEH4zHHp0EyJS0yZFzN" version="15.8.0" type="github">
  <diagram id="R2lEEEUBdFMjLlhIrx00" name="Page-1">
    <mxGraphModel dx="2028" dy="641" grid="1" gridSize="10" guides="1" tooltips="1" connect="1" arrows="1" fold="1" page="1" pageScale="1" pageWidth="850" pageHeight="1100" math="0" shadow="0" extFonts="Permanent Marker^https://fonts.googleapis.com/css?family=Permanent+Marker">
      <root>
        <mxCell id="0" />
        <mxCell id="1" parent="0" />
        <mxCell id="Auwn1AMFD1ajKhrkjhOZ-86" value="" style="group;align=center;" vertex="1" connectable="0" parent="1">
          <mxGeometry x="-70" y="30" width="880" height="600" as="geometry" />
        </mxCell>
        <mxCell id="Auwn1AMFD1ajKhrkjhOZ-1" value="User" style="rounded=1;arcSize=10;whiteSpace=wrap;html=1;align=center;" vertex="1" parent="Auwn1AMFD1ajKhrkjhOZ-86">
          <mxGeometry x="190" y="270" width="100" height="40" as="geometry" />
        </mxCell>
        <mxCell id="Auwn1AMFD1ajKhrkjhOZ-2" value="Message" style="rounded=1;arcSize=10;whiteSpace=wrap;html=1;align=center;" vertex="1" parent="Auwn1AMFD1ajKhrkjhOZ-86">
          <mxGeometry x="380" y="440" width="100" height="40" as="geometry" />
        </mxCell>
        <mxCell id="Auwn1AMFD1ajKhrkjhOZ-3" value="Group" style="rounded=1;arcSize=10;whiteSpace=wrap;html=1;align=center;" vertex="1" parent="Auwn1AMFD1ajKhrkjhOZ-86">
          <mxGeometry x="630" y="270" width="100" height="40" as="geometry" />
        </mxCell>
        <mxCell id="Auwn1AMFD1ajKhrkjhOZ-12" value="0" style="resizable=0;html=1;align=right;verticalAlign=bottom;" connectable="0" vertex="1" parent="Auwn1AMFD1ajKhrkjhOZ-86">
          <mxGeometry x="300.00120760870806" y="290.00096608696634" as="geometry" />
        </mxCell>
        <mxCell id="Auwn1AMFD1ajKhrkjhOZ-13" value="creates a/belongs to" style="shape=rhombus;perimeter=rhombusPerimeter;whiteSpace=wrap;html=1;align=center;" vertex="1" parent="Auwn1AMFD1ajKhrkjhOZ-86">
          <mxGeometry x="390" y="260" width="140" height="60" as="geometry" />
        </mxCell>
        <mxCell id="Auwn1AMFD1ajKhrkjhOZ-14" value="sends/receives a" style="shape=rhombus;perimeter=rhombusPerimeter;whiteSpace=wrap;html=1;align=center;" vertex="1" parent="Auwn1AMFD1ajKhrkjhOZ-86">
          <mxGeometry x="190" y="370" width="120" height="60" as="geometry" />
        </mxCell>
        <mxCell id="Auwn1AMFD1ajKhrkjhOZ-18" value="" style="endArrow=none;html=1;rounded=0;dashed=1;dashPattern=1 2;entryX=0;entryY=0.5;entryDx=0;entryDy=0;exitX=1;exitY=0.5;exitDx=0;exitDy=0;" edge="1" parent="Auwn1AMFD1ajKhrkjhOZ-86" source="Auwn1AMFD1ajKhrkjhOZ-1">
          <mxGeometry relative="1" as="geometry">
            <mxPoint x="310" y="280" as="sourcePoint" />
            <mxPoint x="390" y="289.43" as="targetPoint" />
          </mxGeometry>
        </mxCell>
        <mxCell id="Auwn1AMFD1ajKhrkjhOZ-19" value="M" style="resizable=0;html=1;align=right;verticalAlign=bottom;" connectable="0" vertex="1" parent="Auwn1AMFD1ajKhrkjhOZ-18">
          <mxGeometry x="1" relative="1" as="geometry">
            <mxPoint x="-10" as="offset" />
          </mxGeometry>
        </mxCell>
        <mxCell id="Auwn1AMFD1ajKhrkjhOZ-21" value="" style="endArrow=none;html=1;rounded=0;exitX=1;exitY=0.5;exitDx=0;exitDy=0;entryX=0;entryY=0.5;entryDx=0;entryDy=0;" edge="1" parent="Auwn1AMFD1ajKhrkjhOZ-86" source="Auwn1AMFD1ajKhrkjhOZ-13" target="Auwn1AMFD1ajKhrkjhOZ-3">
          <mxGeometry relative="1" as="geometry">
            <mxPoint x="520" y="300" as="sourcePoint" />
            <mxPoint x="620" y="290" as="targetPoint" />
          </mxGeometry>
        </mxCell>
        <mxCell id="Auwn1AMFD1ajKhrkjhOZ-22" value="1" style="edgeLabel;html=1;align=center;verticalAlign=middle;resizable=0;points=[];" vertex="1" connectable="0" parent="Auwn1AMFD1ajKhrkjhOZ-21">
          <mxGeometry x="-0.8048" y="2" relative="1" as="geometry">
            <mxPoint y="-8" as="offset" />
          </mxGeometry>
        </mxCell>
        <mxCell id="Auwn1AMFD1ajKhrkjhOZ-23" value="1" style="edgeLabel;html=1;align=center;verticalAlign=middle;resizable=0;points=[];" vertex="1" connectable="0" parent="Auwn1AMFD1ajKhrkjhOZ-21">
          <mxGeometry x="0.7762" y="1" relative="1" as="geometry">
            <mxPoint y="-9" as="offset" />
          </mxGeometry>
        </mxCell>
        <mxCell id="Auwn1AMFD1ajKhrkjhOZ-24" value="" style="endArrow=none;html=1;rounded=0;dashed=1;dashPattern=1 1;exitX=0.5;exitY=1;exitDx=0;exitDy=0;entryX=0.377;entryY=0.142;entryDx=0;entryDy=0;entryPerimeter=0;" edge="1" parent="Auwn1AMFD1ajKhrkjhOZ-86" source="Auwn1AMFD1ajKhrkjhOZ-1" target="Auwn1AMFD1ajKhrkjhOZ-14">
          <mxGeometry relative="1" as="geometry">
            <mxPoint x="240" y="380" as="sourcePoint" />
            <mxPoint x="400" y="380" as="targetPoint" />
          </mxGeometry>
        </mxCell>
        <mxCell id="Auwn1AMFD1ajKhrkjhOZ-25" value="0" style="edgeLabel;html=1;align=center;verticalAlign=middle;resizable=0;points=[];" vertex="1" connectable="0" parent="Auwn1AMFD1ajKhrkjhOZ-24">
          <mxGeometry x="-0.8331" y="-1" relative="1" as="geometry">
            <mxPoint x="-6" y="3" as="offset" />
          </mxGeometry>
        </mxCell>
        <mxCell id="Auwn1AMFD1ajKhrkjhOZ-26" value="M" style="edgeLabel;html=1;align=center;verticalAlign=middle;resizable=0;points=[];" vertex="1" connectable="0" parent="Auwn1AMFD1ajKhrkjhOZ-24">
          <mxGeometry x="0.8126" y="-1" relative="1" as="geometry">
            <mxPoint x="-7" y="-2" as="offset" />
          </mxGeometry>
        </mxCell>
        <mxCell id="Auwn1AMFD1ajKhrkjhOZ-30" value="username" style="ellipse;whiteSpace=wrap;html=1;align=center;fontStyle=4" vertex="1" parent="Auwn1AMFD1ajKhrkjhOZ-86">
          <mxGeometry x="20" y="300" width="100" height="40" as="geometry" />
        </mxCell>
        <mxCell id="Auwn1AMFD1ajKhrkjhOZ-31" value="user_id" style="ellipse;whiteSpace=wrap;html=1;align=center;fontStyle=4;" vertex="1" parent="Auwn1AMFD1ajKhrkjhOZ-86">
          <mxGeometry x="70" y="350" width="100" height="40" as="geometry" />
        </mxCell>
        <mxCell id="Auwn1AMFD1ajKhrkjhOZ-32" value="" style="endArrow=none;html=1;rounded=0;exitX=0.5;exitY=0;exitDx=0;exitDy=0;entryX=0;entryY=0.75;entryDx=0;entryDy=0;" edge="1" parent="Auwn1AMFD1ajKhrkjhOZ-86" source="Auwn1AMFD1ajKhrkjhOZ-31" target="Auwn1AMFD1ajKhrkjhOZ-1">
          <mxGeometry relative="1" as="geometry">
            <mxPoint x="110" y="260" as="sourcePoint" />
            <mxPoint x="270" y="260" as="targetPoint" />
          </mxGeometry>
        </mxCell>
        <mxCell id="Auwn1AMFD1ajKhrkjhOZ-35" value="" style="endArrow=none;html=1;rounded=0;exitX=1;exitY=0.5;exitDx=0;exitDy=0;entryX=0;entryY=0.5;entryDx=0;entryDy=0;" edge="1" parent="Auwn1AMFD1ajKhrkjhOZ-86" source="Auwn1AMFD1ajKhrkjhOZ-30" target="Auwn1AMFD1ajKhrkjhOZ-1">
          <mxGeometry relative="1" as="geometry">
            <mxPoint x="240" y="380" as="sourcePoint" />
            <mxPoint x="400" y="380" as="targetPoint" />
          </mxGeometry>
        </mxCell>
        <mxCell id="Auwn1AMFD1ajKhrkjhOZ-36" value="password" style="ellipse;whiteSpace=wrap;html=1;align=center;" vertex="1" parent="Auwn1AMFD1ajKhrkjhOZ-86">
          <mxGeometry y="240" width="100" height="40" as="geometry" />
        </mxCell>
        <mxCell id="Auwn1AMFD1ajKhrkjhOZ-37" value="" style="endArrow=none;html=1;rounded=0;entryX=1;entryY=1;entryDx=0;entryDy=0;exitX=0;exitY=0.25;exitDx=0;exitDy=0;" edge="1" parent="Auwn1AMFD1ajKhrkjhOZ-86" source="Auwn1AMFD1ajKhrkjhOZ-1" target="Auwn1AMFD1ajKhrkjhOZ-36">
          <mxGeometry relative="1" as="geometry">
            <mxPoint x="240" y="380" as="sourcePoint" />
            <mxPoint x="400" y="380" as="targetPoint" />
          </mxGeometry>
        </mxCell>
        <mxCell id="Auwn1AMFD1ajKhrkjhOZ-39" value="name" style="ellipse;whiteSpace=wrap;html=1;align=center;" vertex="1" parent="Auwn1AMFD1ajKhrkjhOZ-86">
          <mxGeometry x="70" y="190" width="100" height="40" as="geometry" />
        </mxCell>
        <mxCell id="Auwn1AMFD1ajKhrkjhOZ-40" value="" style="endArrow=none;html=1;rounded=0;exitX=0.5;exitY=1;exitDx=0;exitDy=0;entryX=0;entryY=0;entryDx=0;entryDy=0;" edge="1" parent="Auwn1AMFD1ajKhrkjhOZ-86" source="Auwn1AMFD1ajKhrkjhOZ-39" target="Auwn1AMFD1ajKhrkjhOZ-1">
          <mxGeometry relative="1" as="geometry">
            <mxPoint x="240" y="380" as="sourcePoint" />
            <mxPoint x="400" y="380" as="targetPoint" />
          </mxGeometry>
        </mxCell>
        <mxCell id="Auwn1AMFD1ajKhrkjhOZ-41" value="Contact" style="rounded=1;arcSize=10;whiteSpace=wrap;html=1;align=center;" vertex="1" parent="Auwn1AMFD1ajKhrkjhOZ-86">
          <mxGeometry x="380" y="90" width="100" height="40" as="geometry" />
        </mxCell>
        <mxCell id="Auwn1AMFD1ajKhrkjhOZ-42" value="has a" style="shape=rhombus;perimeter=rhombusPerimeter;whiteSpace=wrap;html=1;align=center;" vertex="1" parent="Auwn1AMFD1ajKhrkjhOZ-86">
          <mxGeometry x="220" y="130" width="120" height="60" as="geometry" />
        </mxCell>
        <mxCell id="Auwn1AMFD1ajKhrkjhOZ-43" value="" style="endArrow=none;html=1;rounded=0;entryX=0;entryY=1;entryDx=0;entryDy=0;exitX=0.5;exitY=0;exitDx=0;exitDy=0;dashed=1;dashPattern=1 1;" edge="1" parent="Auwn1AMFD1ajKhrkjhOZ-86" source="Auwn1AMFD1ajKhrkjhOZ-1" target="Auwn1AMFD1ajKhrkjhOZ-42">
          <mxGeometry relative="1" as="geometry">
            <mxPoint x="170" y="209.71" as="sourcePoint" />
            <mxPoint x="330" y="209.71" as="targetPoint" />
          </mxGeometry>
        </mxCell>
        <mxCell id="Auwn1AMFD1ajKhrkjhOZ-48" value="0" style="edgeLabel;html=1;align=center;verticalAlign=middle;resizable=0;points=[];" vertex="1" connectable="0" parent="Auwn1AMFD1ajKhrkjhOZ-43">
          <mxGeometry x="-0.8196" relative="1" as="geometry">
            <mxPoint x="7" y="-1" as="offset" />
          </mxGeometry>
        </mxCell>
        <mxCell id="Auwn1AMFD1ajKhrkjhOZ-49" value="M" style="edgeLabel;html=1;align=center;verticalAlign=middle;resizable=0;points=[];" vertex="1" connectable="0" parent="Auwn1AMFD1ajKhrkjhOZ-43">
          <mxGeometry x="0.8022" relative="1" as="geometry">
            <mxPoint x="11" y="6" as="offset" />
          </mxGeometry>
        </mxCell>
        <mxCell id="Auwn1AMFD1ajKhrkjhOZ-45" value="" style="endArrow=none;html=1;rounded=0;exitX=0.571;exitY=0.072;exitDx=0;exitDy=0;entryX=0;entryY=0.5;entryDx=0;entryDy=0;exitPerimeter=0;" edge="1" parent="Auwn1AMFD1ajKhrkjhOZ-86" source="Auwn1AMFD1ajKhrkjhOZ-42" target="Auwn1AMFD1ajKhrkjhOZ-41">
          <mxGeometry relative="1" as="geometry">
            <mxPoint x="360" y="200" as="sourcePoint" />
            <mxPoint x="520" y="200" as="targetPoint" />
          </mxGeometry>
        </mxCell>
        <mxCell id="Auwn1AMFD1ajKhrkjhOZ-46" value="1" style="edgeLabel;html=1;align=center;verticalAlign=middle;resizable=0;points=[];" vertex="1" connectable="0" parent="Auwn1AMFD1ajKhrkjhOZ-45">
          <mxGeometry x="0.8114" y="-1" relative="1" as="geometry">
            <mxPoint y="-13" as="offset" />
          </mxGeometry>
        </mxCell>
        <mxCell id="Auwn1AMFD1ajKhrkjhOZ-47" value="1" style="edgeLabel;html=1;align=center;verticalAlign=middle;resizable=0;points=[];" vertex="1" connectable="0" parent="Auwn1AMFD1ajKhrkjhOZ-45">
          <mxGeometry x="-0.8133" y="1" relative="1" as="geometry">
            <mxPoint y="-11" as="offset" />
          </mxGeometry>
        </mxCell>
        <mxCell id="Auwn1AMFD1ajKhrkjhOZ-50" value="has" style="shape=rhombus;perimeter=rhombusPerimeter;whiteSpace=wrap;html=1;align=center;" vertex="1" parent="Auwn1AMFD1ajKhrkjhOZ-86">
          <mxGeometry x="560" y="370" width="120" height="60" as="geometry" />
        </mxCell>
        <mxCell id="Auwn1AMFD1ajKhrkjhOZ-51" value="" style="endArrow=none;html=1;rounded=0;dashed=1;dashPattern=1 1;entryX=0;entryY=1;entryDx=0;entryDy=0;" edge="1" parent="Auwn1AMFD1ajKhrkjhOZ-86" target="Auwn1AMFD1ajKhrkjhOZ-50">
          <mxGeometry relative="1" as="geometry">
            <mxPoint x="480" y="459.71000000000004" as="sourcePoint" />
            <mxPoint x="640" y="459.71000000000004" as="targetPoint" />
          </mxGeometry>
        </mxCell>
        <mxCell id="Auwn1AMFD1ajKhrkjhOZ-53" value="0" style="edgeLabel;html=1;align=center;verticalAlign=middle;resizable=0;points=[];" vertex="1" connectable="0" parent="Auwn1AMFD1ajKhrkjhOZ-51">
          <mxGeometry x="-0.5871" relative="1" as="geometry">
            <mxPoint x="-13" y="-10" as="offset" />
          </mxGeometry>
        </mxCell>
        <mxCell id="Auwn1AMFD1ajKhrkjhOZ-54" value="M" style="edgeLabel;html=1;align=center;verticalAlign=middle;resizable=0;points=[];" vertex="1" connectable="0" parent="Auwn1AMFD1ajKhrkjhOZ-51">
          <mxGeometry x="0.7945" relative="1" as="geometry">
            <mxPoint x="-18" y="-10" as="offset" />
          </mxGeometry>
        </mxCell>
        <mxCell id="Auwn1AMFD1ajKhrkjhOZ-52" value="" style="endArrow=none;html=1;rounded=0;dashed=1;dashPattern=1 1;entryX=0.5;entryY=1;entryDx=0;entryDy=0;exitX=1;exitY=0;exitDx=0;exitDy=0;" edge="1" parent="Auwn1AMFD1ajKhrkjhOZ-86" source="Auwn1AMFD1ajKhrkjhOZ-50" target="Auwn1AMFD1ajKhrkjhOZ-3">
          <mxGeometry relative="1" as="geometry">
            <mxPoint x="600" y="350" as="sourcePoint" />
            <mxPoint x="760" y="350" as="targetPoint" />
          </mxGeometry>
        </mxCell>
        <mxCell id="Auwn1AMFD1ajKhrkjhOZ-55" value="M" style="edgeLabel;html=1;align=center;verticalAlign=middle;resizable=0;points=[];" vertex="1" connectable="0" parent="Auwn1AMFD1ajKhrkjhOZ-52">
          <mxGeometry x="-0.7057" y="1" relative="1" as="geometry">
            <mxPoint x="-14" y="-3" as="offset" />
          </mxGeometry>
        </mxCell>
        <mxCell id="Auwn1AMFD1ajKhrkjhOZ-56" value="0" style="edgeLabel;html=1;align=center;verticalAlign=middle;resizable=0;points=[];" vertex="1" connectable="0" parent="Auwn1AMFD1ajKhrkjhOZ-52">
          <mxGeometry x="0.8391" y="-1" relative="1" as="geometry">
            <mxPoint x="-19" y="4" as="offset" />
          </mxGeometry>
        </mxCell>
        <mxCell id="Auwn1AMFD1ajKhrkjhOZ-57" value="user_id" style="ellipse;whiteSpace=wrap;html=1;align=center;fontStyle=4" vertex="1" parent="Auwn1AMFD1ajKhrkjhOZ-86">
          <mxGeometry x="540" y="50" width="100" height="40" as="geometry" />
        </mxCell>
        <mxCell id="Auwn1AMFD1ajKhrkjhOZ-58" value="contact_id" style="ellipse;whiteSpace=wrap;html=1;align=center;fontStyle=4;" vertex="1" parent="Auwn1AMFD1ajKhrkjhOZ-86">
          <mxGeometry x="410" width="100" height="40" as="geometry" />
        </mxCell>
        <mxCell id="Auwn1AMFD1ajKhrkjhOZ-59" value="message_id" style="ellipse;whiteSpace=wrap;html=1;align=center;fontStyle=4;" vertex="1" parent="Auwn1AMFD1ajKhrkjhOZ-86">
          <mxGeometry x="240" y="530" width="100" height="40" as="geometry" />
        </mxCell>
        <mxCell id="Auwn1AMFD1ajKhrkjhOZ-60" value="to_user" style="ellipse;whiteSpace=wrap;html=1;align=center;fontStyle=4;" vertex="1" parent="Auwn1AMFD1ajKhrkjhOZ-86">
          <mxGeometry x="520" y="470" width="100" height="40" as="geometry" />
        </mxCell>
        <mxCell id="Auwn1AMFD1ajKhrkjhOZ-61" value="from_user" style="ellipse;whiteSpace=wrap;html=1;align=center;fontStyle=4;" vertex="1" parent="Auwn1AMFD1ajKhrkjhOZ-86">
          <mxGeometry x="520" y="520" width="100" height="40" as="geometry" />
        </mxCell>
        <mxCell id="Auwn1AMFD1ajKhrkjhOZ-62" value="timestamp" style="ellipse;whiteSpace=wrap;html=1;align=center;" vertex="1" parent="Auwn1AMFD1ajKhrkjhOZ-86">
          <mxGeometry x="230" y="480" width="100" height="40" as="geometry" />
        </mxCell>
        <mxCell id="Auwn1AMFD1ajKhrkjhOZ-63" value="content" style="ellipse;whiteSpace=wrap;html=1;align=center;" vertex="1" parent="Auwn1AMFD1ajKhrkjhOZ-86">
          <mxGeometry x="320" y="560" width="100" height="40" as="geometry" />
        </mxCell>
        <mxCell id="Auwn1AMFD1ajKhrkjhOZ-64" value="name" style="ellipse;whiteSpace=wrap;html=1;align=center;" vertex="1" parent="Auwn1AMFD1ajKhrkjhOZ-86">
          <mxGeometry x="530" y="120" width="100" height="40" as="geometry" />
        </mxCell>
        <mxCell id="Auwn1AMFD1ajKhrkjhOZ-65" value="" style="endArrow=none;html=1;rounded=0;entryX=0;entryY=0.5;entryDx=0;entryDy=0;exitX=1;exitY=0.75;exitDx=0;exitDy=0;" edge="1" parent="Auwn1AMFD1ajKhrkjhOZ-86" source="Auwn1AMFD1ajKhrkjhOZ-41" target="Auwn1AMFD1ajKhrkjhOZ-64">
          <mxGeometry relative="1" as="geometry">
            <mxPoint x="240" y="320" as="sourcePoint" />
            <mxPoint x="400" y="320" as="targetPoint" />
          </mxGeometry>
        </mxCell>
        <mxCell id="Auwn1AMFD1ajKhrkjhOZ-66" value="" style="endArrow=none;html=1;rounded=0;entryX=0.007;entryY=0.623;entryDx=0;entryDy=0;exitX=1;exitY=1;exitDx=0;exitDy=0;entryPerimeter=0;" edge="1" parent="Auwn1AMFD1ajKhrkjhOZ-86" target="Auwn1AMFD1ajKhrkjhOZ-57">
          <mxGeometry relative="1" as="geometry">
            <mxPoint x="480" y="100" as="sourcePoint" />
            <mxPoint x="530" y="110" as="targetPoint" />
          </mxGeometry>
        </mxCell>
        <mxCell id="Auwn1AMFD1ajKhrkjhOZ-67" value="" style="endArrow=none;html=1;rounded=0;entryX=0.5;entryY=1;entryDx=0;entryDy=0;exitX=0.75;exitY=0;exitDx=0;exitDy=0;" edge="1" parent="Auwn1AMFD1ajKhrkjhOZ-86" source="Auwn1AMFD1ajKhrkjhOZ-41" target="Auwn1AMFD1ajKhrkjhOZ-58">
          <mxGeometry relative="1" as="geometry">
            <mxPoint x="500" y="150" as="sourcePoint" />
            <mxPoint x="550" y="160" as="targetPoint" />
          </mxGeometry>
        </mxCell>
        <mxCell id="Auwn1AMFD1ajKhrkjhOZ-68" value="" style="endArrow=none;html=1;rounded=0;entryX=0.5;entryY=0;entryDx=0;entryDy=0;exitX=0.5;exitY=1;exitDx=0;exitDy=0;" edge="1" parent="Auwn1AMFD1ajKhrkjhOZ-86" source="Auwn1AMFD1ajKhrkjhOZ-2" target="Auwn1AMFD1ajKhrkjhOZ-63">
          <mxGeometry relative="1" as="geometry">
            <mxPoint x="350" y="490" as="sourcePoint" />
            <mxPoint x="400" y="500" as="targetPoint" />
          </mxGeometry>
        </mxCell>
        <mxCell id="Auwn1AMFD1ajKhrkjhOZ-70" value="" style="endArrow=none;html=1;rounded=0;entryX=0;entryY=0;entryDx=0;entryDy=0;exitX=0.75;exitY=1;exitDx=0;exitDy=0;" edge="1" parent="Auwn1AMFD1ajKhrkjhOZ-86" source="Auwn1AMFD1ajKhrkjhOZ-2" target="Auwn1AMFD1ajKhrkjhOZ-61">
          <mxGeometry relative="1" as="geometry">
            <mxPoint x="580" y="510" as="sourcePoint" />
            <mxPoint x="630" y="520" as="targetPoint" />
          </mxGeometry>
        </mxCell>
        <mxCell id="Auwn1AMFD1ajKhrkjhOZ-71" value="" style="endArrow=none;html=1;rounded=0;entryX=0;entryY=0.5;entryDx=0;entryDy=0;exitX=1;exitY=0.75;exitDx=0;exitDy=0;" edge="1" parent="Auwn1AMFD1ajKhrkjhOZ-86" source="Auwn1AMFD1ajKhrkjhOZ-2" target="Auwn1AMFD1ajKhrkjhOZ-60">
          <mxGeometry relative="1" as="geometry">
            <mxPoint x="590" y="520" as="sourcePoint" />
            <mxPoint x="640" y="530" as="targetPoint" />
          </mxGeometry>
        </mxCell>
        <mxCell id="Auwn1AMFD1ajKhrkjhOZ-72" value="" style="endArrow=none;html=1;rounded=0;entryX=1;entryY=0.5;entryDx=0;entryDy=0;exitX=0;exitY=1;exitDx=0;exitDy=0;" edge="1" parent="Auwn1AMFD1ajKhrkjhOZ-86" source="Auwn1AMFD1ajKhrkjhOZ-2" target="Auwn1AMFD1ajKhrkjhOZ-62">
          <mxGeometry relative="1" as="geometry">
            <mxPoint x="200" y="455" as="sourcePoint" />
            <mxPoint x="250" y="465" as="targetPoint" />
          </mxGeometry>
        </mxCell>
        <mxCell id="Auwn1AMFD1ajKhrkjhOZ-73" value="" style="endArrow=none;html=1;rounded=0;entryX=0.25;entryY=1;entryDx=0;entryDy=0;exitX=1;exitY=0;exitDx=0;exitDy=0;" edge="1" parent="Auwn1AMFD1ajKhrkjhOZ-86" source="Auwn1AMFD1ajKhrkjhOZ-59" target="Auwn1AMFD1ajKhrkjhOZ-2">
          <mxGeometry relative="1" as="geometry">
            <mxPoint x="610" y="540" as="sourcePoint" />
            <mxPoint x="660" y="550" as="targetPoint" />
          </mxGeometry>
        </mxCell>
        <mxCell id="Auwn1AMFD1ajKhrkjhOZ-74" value="group_id" style="ellipse;whiteSpace=wrap;html=1;align=center;fontStyle=4;" vertex="1" parent="Auwn1AMFD1ajKhrkjhOZ-86">
          <mxGeometry x="430" y="550" width="100" height="40" as="geometry" />
        </mxCell>
        <mxCell id="Auwn1AMFD1ajKhrkjhOZ-75" value="" style="endArrow=none;html=1;rounded=0;entryX=0.5;entryY=0;entryDx=0;entryDy=0;exitX=0.605;exitY=0.977;exitDx=0;exitDy=0;exitPerimeter=0;" edge="1" parent="Auwn1AMFD1ajKhrkjhOZ-86" source="Auwn1AMFD1ajKhrkjhOZ-2" target="Auwn1AMFD1ajKhrkjhOZ-74">
          <mxGeometry relative="1" as="geometry">
            <mxPoint x="465" y="490" as="sourcePoint" />
            <mxPoint x="544.7461103560458" y="535.8174007179493" as="targetPoint" />
          </mxGeometry>
        </mxCell>
        <mxCell id="Auwn1AMFD1ajKhrkjhOZ-76" value="admin" style="ellipse;whiteSpace=wrap;html=1;align=center;fontStyle=4;" vertex="1" parent="Auwn1AMFD1ajKhrkjhOZ-86">
          <mxGeometry x="720" y="160" width="100" height="40" as="geometry" />
        </mxCell>
        <mxCell id="Auwn1AMFD1ajKhrkjhOZ-77" value="group_id" style="ellipse;whiteSpace=wrap;html=1;align=center;fontStyle=4;" vertex="1" parent="Auwn1AMFD1ajKhrkjhOZ-86">
          <mxGeometry x="760" y="230" width="100" height="40" as="geometry" />
        </mxCell>
        <mxCell id="Auwn1AMFD1ajKhrkjhOZ-78" value="name" style="ellipse;whiteSpace=wrap;html=1;align=center;fontStyle=4;" vertex="1" parent="Auwn1AMFD1ajKhrkjhOZ-86">
          <mxGeometry x="780" y="290" width="100" height="40" as="geometry" />
        </mxCell>
        <mxCell id="Auwn1AMFD1ajKhrkjhOZ-79" value="create_date" style="ellipse;whiteSpace=wrap;html=1;align=center;fontStyle=0;" vertex="1" parent="Auwn1AMFD1ajKhrkjhOZ-86">
          <mxGeometry x="760" y="350" width="100" height="40" as="geometry" />
        </mxCell>
        <mxCell id="Auwn1AMFD1ajKhrkjhOZ-80" value="" style="endArrow=none;html=1;rounded=0;entryX=0.5;entryY=1;entryDx=0;entryDy=0;exitX=0.75;exitY=0;exitDx=0;exitDy=0;" edge="1" parent="Auwn1AMFD1ajKhrkjhOZ-86" source="Auwn1AMFD1ajKhrkjhOZ-3" target="Auwn1AMFD1ajKhrkjhOZ-76">
          <mxGeometry relative="1" as="geometry">
            <mxPoint x="800" y="210" as="sourcePoint" />
            <mxPoint x="850" y="230" as="targetPoint" />
          </mxGeometry>
        </mxCell>
        <mxCell id="Auwn1AMFD1ajKhrkjhOZ-82" value="" style="endArrow=none;html=1;rounded=0;entryX=0;entryY=1;entryDx=0;entryDy=0;exitX=0.996;exitY=0.361;exitDx=0;exitDy=0;exitPerimeter=0;" edge="1" parent="Auwn1AMFD1ajKhrkjhOZ-86" source="Auwn1AMFD1ajKhrkjhOZ-3" target="Auwn1AMFD1ajKhrkjhOZ-77">
          <mxGeometry relative="1" as="geometry">
            <mxPoint x="810" y="220" as="sourcePoint" />
            <mxPoint x="860" y="240" as="targetPoint" />
          </mxGeometry>
        </mxCell>
        <mxCell id="Auwn1AMFD1ajKhrkjhOZ-83" value="" style="endArrow=none;html=1;rounded=0;entryX=0;entryY=0;entryDx=0;entryDy=0;exitX=0.75;exitY=1;exitDx=0;exitDy=0;" edge="1" parent="Auwn1AMFD1ajKhrkjhOZ-86" source="Auwn1AMFD1ajKhrkjhOZ-3" target="Auwn1AMFD1ajKhrkjhOZ-79">
          <mxGeometry relative="1" as="geometry">
            <mxPoint x="820" y="230" as="sourcePoint" />
            <mxPoint x="870" y="250" as="targetPoint" />
          </mxGeometry>
        </mxCell>
        <mxCell id="Auwn1AMFD1ajKhrkjhOZ-84" value="" style="endArrow=none;html=1;rounded=0;entryX=0;entryY=0.5;entryDx=0;entryDy=0;exitX=1;exitY=0.75;exitDx=0;exitDy=0;" edge="1" parent="Auwn1AMFD1ajKhrkjhOZ-86" source="Auwn1AMFD1ajKhrkjhOZ-3" target="Auwn1AMFD1ajKhrkjhOZ-78">
          <mxGeometry relative="1" as="geometry">
            <mxPoint x="830" y="240" as="sourcePoint" />
            <mxPoint x="880" y="260" as="targetPoint" />
          </mxGeometry>
        </mxCell>
        <mxCell id="Auwn1AMFD1ajKhrkjhOZ-27" value="" style="endArrow=none;html=1;rounded=0;entryX=0;entryY=0.5;entryDx=0;entryDy=0;exitX=1;exitY=1;exitDx=0;exitDy=0;" edge="1" parent="Auwn1AMFD1ajKhrkjhOZ-86" source="Auwn1AMFD1ajKhrkjhOZ-14" target="Auwn1AMFD1ajKhrkjhOZ-2">
          <mxGeometry relative="1" as="geometry">
            <mxPoint x="240" y="380" as="sourcePoint" />
            <mxPoint x="400" y="380" as="targetPoint" />
          </mxGeometry>
        </mxCell>
        <mxCell id="Auwn1AMFD1ajKhrkjhOZ-28" value="1" style="edgeLabel;html=1;align=center;verticalAlign=middle;resizable=0;points=[];" vertex="1" connectable="0" parent="Auwn1AMFD1ajKhrkjhOZ-27">
          <mxGeometry x="-0.8545" relative="1" as="geometry">
            <mxPoint x="18" y="-8" as="offset" />
          </mxGeometry>
        </mxCell>
        <mxCell id="Auwn1AMFD1ajKhrkjhOZ-29" value="1" style="edgeLabel;html=1;align=center;verticalAlign=middle;resizable=0;points=[];" vertex="1" connectable="0" parent="Auwn1AMFD1ajKhrkjhOZ-27">
          <mxGeometry x="0.7531" y="1" relative="1" as="geometry">
            <mxPoint y="-9" as="offset" />
          </mxGeometry>
        </mxCell>
        <mxCell id="Auwn1AMFD1ajKhrkjhOZ-89" value="owner_id" style="ellipse;whiteSpace=wrap;html=1;align=center;fontStyle=4" vertex="1" parent="Auwn1AMFD1ajKhrkjhOZ-86">
          <mxGeometry x="300" y="20" width="100" height="40" as="geometry" />
        </mxCell>
        <mxCell id="Auwn1AMFD1ajKhrkjhOZ-90" value="" style="endArrow=none;html=1;rounded=0;entryX=0.5;entryY=1;entryDx=0;entryDy=0;exitX=0.25;exitY=0;exitDx=0;exitDy=0;" edge="1" parent="Auwn1AMFD1ajKhrkjhOZ-86" source="Auwn1AMFD1ajKhrkjhOZ-41" target="Auwn1AMFD1ajKhrkjhOZ-89">
          <mxGeometry relative="1" as="geometry">
            <mxPoint x="369.3" y="90" as="sourcePoint" />
            <mxPoint x="430.0000000000003" y="64.91999999999996" as="targetPoint" />
          </mxGeometry>
        </mxCell>
      </root>
    </mxGraphModel>
  </diagram>
</mxfile>
